<svg id="visual" viewBox="0 0 900 600" width="900" height="600" xmlns="http://www.w3.org/2000/svg" xmlns:xlink="http://www.w3.org/1999/xlink" version="1.1"><g stroke-width="1" stroke-linejoin="bevel"><path d="M506 286L408 234L388 282Z" fill="#282828" stroke="#282828"></path><path d="M506 286L464 172L408 234Z" fill="#181818" stroke="#181818"></path><path d="M415 78L332 230L408 234Z" fill="#2a2a2a" stroke="#2a2a2a"></path><path d="M408 234L332 230L388 282Z" fill="#262626" stroke="#262626"></path><path d="M311 369L429 412L388 282Z" fill="#181818" stroke="#181818"></path><path d="M388 282L429 412L506 286Z" fill="#1d1d1d" stroke="#1d1d1d"></path><path d="M332 230L305 290L388 282Z" fill="#282828" stroke="#282828"></path><path d="M570 91L468 124L464 172Z" fill="#1b1b1b" stroke="#1b1b1b"></path><path d="M464 172L415 78L408 234Z" fill="#212121" stroke="#212121"></path><path d="M429 412L478 434L506 286Z" fill="#1d1d1d" stroke="#1d1d1d"></path><path d="M635 317L595 219L506 286Z" fill="#212121" stroke="#212121"></path><path d="M506 286L595 219L464 172Z" fill="#2a2a2a" stroke="#2a2a2a"></path><path d="M305 290L311 369L388 282Z" fill="#2a2a2a" stroke="#2a2a2a"></path><path d="M429 412L394 464L478 434Z" fill="#1f1f1f" stroke="#1f1f1f"></path><path d="M478 434L592 367L506 286Z" fill="#181818" stroke="#181818"></path><path d="M592 367L635 317L506 286Z" fill="#1f1f1f" stroke="#1f1f1f"></path><path d="M311 369L394 464L429 412Z" fill="#1f1f1f" stroke="#1f1f1f"></path><path d="M508 0L415 78L468 124Z" fill="#181818" stroke="#181818"></path><path d="M468 124L415 78L464 172Z" fill="#141414" stroke="#141414"></path><path d="M394 464L476 483L478 434Z" fill="#141414" stroke="#141414"></path><path d="M478 434L604 505L592 367Z" fill="#282828" stroke="#282828"></path><path d="M305 290L234 299L311 369Z" fill="#282828" stroke="#282828"></path><path d="M311 369L302 504L394 464Z" fill="#262626" stroke="#262626"></path><path d="M332 230L234 299L305 290Z" fill="#232323" stroke="#232323"></path><path d="M173 220L234 299L332 230Z" fill="#2a2a2a" stroke="#2a2a2a"></path><path d="M415 78L296 114L332 230Z" fill="#232323" stroke="#232323"></path><path d="M709 73L570 91L595 219Z" fill="#282828" stroke="#282828"></path><path d="M595 219L570 91L464 172Z" fill="#1f1f1f" stroke="#1f1f1f"></path><path d="M604 505L676 417L592 367Z" fill="#262626" stroke="#262626"></path><path d="M592 367L676 417L635 317Z" fill="#1f1f1f" stroke="#1f1f1f"></path><path d="M635 317L733 231L595 219Z" fill="#282828" stroke="#282828"></path><path d="M224 508L302 504L311 369Z" fill="#141414" stroke="#141414"></path><path d="M417 600L468 600L476 483Z" fill="#1d1d1d" stroke="#1d1d1d"></path><path d="M676 417L716 336L635 317Z" fill="#1f1f1f" stroke="#1f1f1f"></path><path d="M476 483L604 505L478 434Z" fill="#282828" stroke="#282828"></path><path d="M468 600L604 505L476 483Z" fill="#181818" stroke="#181818"></path><path d="M296 114L173 220L332 230Z" fill="#2a2a2a" stroke="#2a2a2a"></path><path d="M234 299L165 364L311 369Z" fill="#161616" stroke="#161616"></path><path d="M570 91L508 0L468 124Z" fill="#181818" stroke="#181818"></path><path d="M415 78L314 0L296 114Z" fill="#141414" stroke="#141414"></path><path d="M508 0L381 0L415 78Z" fill="#1b1b1b" stroke="#1b1b1b"></path><path d="M296 114L170 126L173 220Z" fill="#181818" stroke="#181818"></path><path d="M716 336L733 231L635 317Z" fill="#232323" stroke="#232323"></path><path d="M570 91L616 0L508 0Z" fill="#262626" stroke="#262626"></path><path d="M113 323L165 364L234 299Z" fill="#1d1d1d" stroke="#1d1d1d"></path><path d="M381 0L314 0L415 78Z" fill="#232323" stroke="#232323"></path><path d="M233 0L170 126L296 114Z" fill="#181818" stroke="#181818"></path><path d="M173 220L113 323L234 299Z" fill="#161616" stroke="#161616"></path><path d="M165 364L224 508L311 369Z" fill="#2a2a2a" stroke="#2a2a2a"></path><path d="M417 600L476 483L394 464Z" fill="#262626" stroke="#262626"></path><path d="M417 600L394 464L302 504Z" fill="#1f1f1f" stroke="#1f1f1f"></path><path d="M294 600L417 600L302 504Z" fill="#282828" stroke="#282828"></path><path d="M709 73L616 0L570 91Z" fill="#161616" stroke="#161616"></path><path d="M733 231L709 73L595 219Z" fill="#212121" stroke="#212121"></path><path d="M117 180L113 323L173 220Z" fill="#161616" stroke="#161616"></path><path d="M165 364L90 393L224 508Z" fill="#141414" stroke="#141414"></path><path d="M716 336L785 307L733 231Z" fill="#181818" stroke="#181818"></path><path d="M733 231L771 87L709 73Z" fill="#181818" stroke="#181818"></path><path d="M819 371L785 307L716 336Z" fill="#141414" stroke="#141414"></path><path d="M819 371L716 336L676 417Z" fill="#1b1b1b" stroke="#1b1b1b"></path><path d="M170 126L117 180L173 220Z" fill="#2a2a2a" stroke="#2a2a2a"></path><path d="M314 0L233 0L296 114Z" fill="#212121" stroke="#212121"></path><path d="M170 126L135 86L117 180Z" fill="#1f1f1f" stroke="#1f1f1f"></path><path d="M224 508L294 600L302 504Z" fill="#1d1d1d" stroke="#1d1d1d"></path><path d="M709 73L678 0L616 0Z" fill="#1d1d1d" stroke="#1d1d1d"></path><path d="M233 0L135 86L170 126Z" fill="#141414" stroke="#141414"></path><path d="M684 600L727 516L604 505Z" fill="#232323" stroke="#232323"></path><path d="M604 505L727 516L676 417Z" fill="#2a2a2a" stroke="#2a2a2a"></path><path d="M468 600L636 600L604 505Z" fill="#1b1b1b" stroke="#1b1b1b"></path><path d="M900 264L815 211L785 307Z" fill="#212121" stroke="#212121"></path><path d="M785 307L815 211L733 231Z" fill="#1d1d1d" stroke="#1d1d1d"></path><path d="M709 73L818 0L678 0Z" fill="#282828" stroke="#282828"></path><path d="M0 320L90 393L113 323Z" fill="#1f1f1f" stroke="#1f1f1f"></path><path d="M113 323L90 393L165 364Z" fill="#1f1f1f" stroke="#1f1f1f"></path><path d="M224 508L201 600L294 600Z" fill="#212121" stroke="#212121"></path><path d="M815 211L771 87L733 231Z" fill="#181818" stroke="#181818"></path><path d="M727 516L819 371L676 417Z" fill="#1d1d1d" stroke="#1d1d1d"></path><path d="M636 600L684 600L604 505Z" fill="#2a2a2a" stroke="#2a2a2a"></path><path d="M727 516L806 531L819 371Z" fill="#161616" stroke="#161616"></path><path d="M74 535L201 600L224 508Z" fill="#1f1f1f" stroke="#1f1f1f"></path><path d="M684 600L806 531L727 516Z" fill="#232323" stroke="#232323"></path><path d="M233 0L100 0L135 86Z" fill="#2a2a2a" stroke="#2a2a2a"></path><path d="M0 77L0 233L117 180Z" fill="#141414" stroke="#141414"></path><path d="M0 233L0 320L113 323Z" fill="#1b1b1b" stroke="#1b1b1b"></path><path d="M0 233L113 323L117 180Z" fill="#212121" stroke="#212121"></path><path d="M90 393L74 535L224 508Z" fill="#282828" stroke="#282828"></path><path d="M0 77L117 180L135 86Z" fill="#181818" stroke="#181818"></path><path d="M0 467L74 535L90 393Z" fill="#262626" stroke="#262626"></path><path d="M900 377L900 264L819 371Z" fill="#212121" stroke="#212121"></path><path d="M819 371L900 264L785 307Z" fill="#141414" stroke="#141414"></path><path d="M815 211L900 127L771 87Z" fill="#2a2a2a" stroke="#2a2a2a"></path><path d="M900 264L900 200L815 211Z" fill="#1b1b1b" stroke="#1b1b1b"></path><path d="M771 87L818 0L709 73Z" fill="#212121" stroke="#212121"></path><path d="M900 497L900 377L819 371Z" fill="#1b1b1b" stroke="#1b1b1b"></path><path d="M900 127L818 0L771 87Z" fill="#1d1d1d" stroke="#1d1d1d"></path><path d="M0 320L0 431L90 393Z" fill="#141414" stroke="#141414"></path><path d="M900 200L900 127L815 211Z" fill="#141414" stroke="#141414"></path><path d="M74 535L92 600L201 600Z" fill="#282828" stroke="#282828"></path><path d="M0 600L92 600L74 535Z" fill="#1f1f1f" stroke="#1f1f1f"></path><path d="M0 431L0 467L90 393Z" fill="#282828" stroke="#282828"></path><path d="M100 0L0 77L135 86Z" fill="#1b1b1b" stroke="#1b1b1b"></path><path d="M834 600L900 497L806 531Z" fill="#2a2a2a" stroke="#2a2a2a"></path><path d="M806 531L900 497L819 371Z" fill="#2a2a2a" stroke="#2a2a2a"></path><path d="M684 600L834 600L806 531Z" fill="#2a2a2a" stroke="#2a2a2a"></path><path d="M100 0L0 0L0 77Z" fill="#1b1b1b" stroke="#1b1b1b"></path><path d="M900 127L900 0L818 0Z" fill="#282828" stroke="#282828"></path><path d="M0 467L0 600L74 535Z" fill="#1f1f1f" stroke="#1f1f1f"></path><path d="M834 600L900 600L900 497Z" fill="#282828" stroke="#282828"></path></g></svg>